<?xml version="1.0" encoding="UTF-8" standalone="no"?>
<!-- Created with Inkscape (http://www.inkscape.org/) -->

<svg
   version="1.1"
   id="svg2"
   xml:space="preserve"
   width="581.41199"
   height="835.45526"
   viewBox="0 0 581.41197 835.45523"
   sodipodi:docname="leaf.svg"
   inkscape:version="1.1.1 (3bf5ae0d25, 2021-09-20, custom)"
   xmlns:inkscape="http://www.inkscape.org/namespaces/inkscape"
   xmlns:sodipodi="http://sodipodi.sourceforge.net/DTD/sodipodi-0.dtd"
   xmlns="http://www.w3.org/2000/svg"
   xmlns:svg="http://www.w3.org/2000/svg"><defs
     id="defs6" /><sodipodi:namedview
     id="namedview4"
     pagecolor="#ffffff"
     bordercolor="#666666"
     borderopacity="1.0"
     inkscape:pageshadow="2"
     inkscape:pageopacity="0"
     inkscape:pagecheckerboard="true"
     showgrid="false"
     fit-margin-top="0"
     fit-margin-left="0"
     fit-margin-right="0"
     fit-margin-bottom="0"
     inkscape:zoom="0.68166244"
     inkscape:cx="-672.71077"
     inkscape:cy="764.45532"
     inkscape:window-width="3440"
     inkscape:window-height="1415"
     inkscape:window-x="0"
     inkscape:window-y="25"
     inkscape:window-maximized="1"
     inkscape:current-layer="g10" /><g
     id="g8"
     inkscape:groupmode="layer"
     inkscape:label="ink_ext_XXXXXX"
     transform="matrix(1.3333333,0,0,-1.3333333,-1285.2546,1306.6666)"><g
       id="g10"
       transform="scale(0.1)"><path
         d="m 12713.1,8246.14 c 79.1,237.19 82.1,597.9 1.1,858.25 -6.1,9.96 -12.1,19.92 -18.4,29.88 80.5,-624.06 -563.7,-1248.09 -986.4,-1610.42 -700.5,-600.48 -913,-1223.47 -915.4,-2140.8 209.7,560.26 467.1,1054.1 885.7,1507.58 389.2,429.47 872.4,778.42 1033.4,1355.51"
         style="fill:#85c308;fill-opacity:1;fill-rule:nonzero;stroke:none"
         id="path22" /><path
         d="m 12793.6,7803.25 c -138.9,-106.87 -294.9,-179.63 -461.1,-231.98 -48.5,-57.08 -99.2,-112.68 -151.3,-167.41 237.6,84.93 484.3,179.74 612.4,399.39"
         style="fill:#85c308;fill-opacity:1;fill-rule:nonzero;stroke:none"
         id="path24" /><path
         d="m 12484.9,7212.73 c -199.1,-143.8 -516.7,-241.96 -780,-294.61 -8.4,-9.15 -16.9,-18.26 -25.2,-27.49 -48.3,-52.3 -94.3,-105.15 -138.5,-158.56 344.2,69.88 721.9,247.71 943.7,480.66"
         style="fill:#85c308;fill-opacity:1;fill-rule:nonzero;stroke:none"
         id="path26" /><path
         d="m 11800.5,6420.9 c -160.3,-91.56 -379,-114.76 -573.1,-127.95 -44.1,-71.71 -85.9,-144.53 -125.5,-218.51 251.4,60.55 551.4,165.3 698.6,346.46"
         style="fill:#85c308;fill-opacity:1;fill-rule:nonzero;stroke:none"
         id="path28" /><path
         d="m 12937.4,8429.71 c -38.5,249.93 -95.5,463.13 -223.2,674.68 81,-260.35 78,-621.06 -1.1,-858.25 -73.3,-262.49 -213.3,-477.72 -380.6,-674.87 166.2,52.35 322.2,125.11 461.1,231.98 v 13.43 -13.43 -13.41 13.41 c -128.1,-219.65 -374.8,-314.46 -612.4,-399.39 -155.2,-162.91 -322.2,-318.68 -476.3,-485.74 263.3,52.65 580.9,150.81 780,294.61 -221.8,-232.95 -599.5,-410.78 -943.7,-480.66 -117.4,-142.03 -220.9,-288.16 -313.8,-439.12 194.1,13.19 412.8,36.39 573.1,127.95 -147.2,-181.16 -447.2,-285.91 -698.6,-346.46 -117.7,-219.46 -217.3,-449.21 -307.9,-691.39 0,-5.27 -0.1,-10.4 -0.1,-15.7 463,402.62 1076.6,807.75 1579.8,1149.95 664.3,442.89 704.6,1227.97 563.7,1912.41"
         style="fill:#73ac3e;fill-opacity:1;fill-rule:nonzero;stroke:none"
         id="path30" /><path
         d="m 10801.8,5383.05 c -147.6,-254.99 -429.4,-872.35 -241.6,-1100.52 26.9,13.43 53.7,26.84 67.2,40.26 l 13.4,13.44 c -187.9,295.25 26.8,751.55 161,1046.82"
         style="fill:#73ac3e;fill-opacity:1;fill-rule:nonzero;stroke:none"
         id="path32" /></g></g></svg>
